<svg width="636" height="1037" viewBox="0 0 636 1037" fill="none" xmlns="http://www.w3.org/2000/svg">
<path d="M328.392 0L91.9229 1036.87H241.743L477.814 0H328.392Z" fill="#405493"/>
<path opacity="0.5" d="M471.558 0L241 1036.87H404.712L636 0H471.558Z" fill="#9CAAD3"/>
<path d="M339.885 1036.85L428.907 644.796C431.267 634.443 436.597 625.017 444.235 617.689C451.873 610.362 461.482 605.456 471.868 603.582C485.969 601.216 501.949 604.742 515.51 623.219C520.12 629.626 523.309 636.955 524.862 644.71C526.415 652.466 526.295 660.466 524.511 668.171L443.102 1036.85H339.885Z" fill="#405493" fill-opacity="0.92"/>
<path d="M378.06 3.05176e-05L289.037 392.049C286.678 402.402 281.347 411.828 273.709 419.156C266.071 426.483 256.462 431.389 246.077 433.263C231.976 435.629 215.995 432.104 202.435 413.626C197.825 407.219 194.635 399.89 193.082 392.135C191.529 384.38 191.649 376.379 193.434 368.675L274.842 3.05176e-05H378.06Z" fill="#405493" fill-opacity="0.92"/>
<path d="M37 1036.85L96.1292 789.445C98.4941 779.096 103.826 769.673 111.463 762.346C119.1 755.019 128.706 750.112 139.089 748.232C153.19 745.866 169.171 749.391 182.755 767.869C187.364 774.276 190.551 781.606 192.099 789.362C193.648 797.117 193.523 805.118 191.732 812.82L141.933 1036.85H37Z" fill="#566CB3"/>
<path d="M0 1036.87L38.9966 873.284C40.5564 866.44 44.0728 860.21 49.1096 855.365C54.1465 850.521 60.4819 847.276 67.3297 846.033C76.6293 844.469 87.1689 846.799 96.1276 859.017C99.1673 863.254 101.269 868.1 102.291 873.229C103.312 878.357 103.23 883.647 102.048 888.74L69.2051 1036.87H0Z" fill="#566CB3" fill-opacity="0.7"/>
<path d="M348.641 365.011L286.578 636.555C282.976 651.931 285.466 668.114 293.523 681.678C303.667 698.602 321.682 712.775 350.872 689.357C361.66 680.702 369.272 668.681 372.507 655.192L436.232 389.614C438.757 379.442 438.626 368.787 435.854 358.681C433.081 348.574 427.76 339.358 420.406 331.925C408.494 320.057 391.721 313.541 370.528 330.127C359.446 338.867 351.713 351.192 348.641 365.011Z" fill="#566CB3" fill-opacity="0.92"/>
</svg>
