<svg width="262" height="230" viewBox="0 0 262 230" fill="none" xmlns="http://www.w3.org/2000/svg">
<g clip-path="url(#clip0_356_3332)">
<path d="M30.3135 230L128.38 176.13L226.447 230L128.38 0L30.3135 230Z" fill="#273155"/>
<path d="M48.2119 188.027L52.6695 187.997L55.1133 182.308H50.5678L48.2119 188.027Z" fill="#405494"/>
<path d="M36.9316 214.473L128.38 163.902L219.428 214.034L128.38 0L36.9316 214.473Z" fill="#405494"/>
<path d="M103.776 68.6741H0L80.1973 123.969L103.776 68.6741Z" fill="#273155"/>
<path d="M104.039 68.6741H11.2217L82.5234 118.65L104.039 68.6741Z" fill="#405494"/>
<path d="M158.225 69.6499H262L181.803 124.944L158.225 69.6499Z" fill="#273155"/>
<path d="M158.225 69.6499H250.798L179.486 119.635L158.225 69.6499Z" fill="#405494"/>
<path d="M148.508 82.6588C144.896 78.8269 140.229 76.148 135.094 74.9599C129.96 73.7717 124.588 74.1274 119.655 75.9821C114.723 77.8368 110.451 81.1076 107.378 85.3821C104.304 89.6567 102.567 94.7438 102.385 100.002C102.203 105.261 103.584 110.456 106.354 114.932C109.125 119.408 113.16 122.966 117.953 125.156C122.745 127.346 128.079 128.072 133.284 127.24C138.488 126.409 143.329 124.058 147.198 120.485C149.787 118.096 151.876 115.219 153.345 112.02C154.814 108.82 155.633 105.362 155.755 101.844C155.876 98.3271 155.299 94.8205 154.055 91.5275C152.811 88.2344 150.926 85.2201 148.508 82.6588ZM143.386 88.4361C143.607 88.1839 143.916 88.0253 144.25 87.9927C144.584 87.96 144.918 88.0558 145.184 88.2605C147.008 89.4284 148.74 90.7334 150.365 92.164C150.832 92.554 151.172 93.0737 151.343 93.6572C152.356 96.8045 152.706 100.127 152.369 103.416C152.311 103.778 152.152 104.116 151.91 104.392C151.147 105.368 150.424 106.344 149.622 107.32C148.967 108.091 148.303 108.823 147.599 109.535C147.403 109.751 147.138 109.892 146.849 109.935C146.56 109.978 146.265 109.919 146.015 109.769L139.26 105.993C139.055 105.873 138.883 105.705 138.76 105.502C138.637 105.299 138.567 105.068 138.556 104.831C138.214 101.904 137.872 99.0441 137.579 96.1457C137.53 95.6968 137.471 95.2284 137.403 94.7502C137.376 94.5212 137.405 94.2892 137.487 94.0736C137.568 93.858 137.701 93.665 137.872 93.5108L140.697 90.9149L143.386 88.4361ZM139.475 80.3459C140.257 81.5267 141.069 82.6978 141.87 83.8884C142.296 84.5475 142.681 85.2319 143.024 85.9378C143.175 86.2055 143.228 86.5172 143.175 86.8197C143.121 87.1223 142.964 87.3969 142.731 87.5968L139.915 90.1927L137.168 92.7301C136.987 92.9007 136.767 93.0253 136.527 93.0933C136.287 93.1612 136.034 93.1705 135.79 93.1204C132.505 92.4568 129.221 91.803 125.907 91.1686C125.637 91.1246 125.382 91.0117 125.168 90.8407C124.954 90.6698 124.788 90.4466 124.685 90.1927C123.649 87.9286 122.61 85.6711 121.567 83.42C121.408 83.1386 121.359 82.8084 121.429 82.493C121.5 82.1777 121.684 81.8995 121.948 81.7122C123.622 80.334 125.397 79.0814 127.256 77.9647C127.734 77.6764 128.282 77.5245 128.84 77.5256C132.14 77.5136 135.407 78.1779 138.439 79.4774C138.871 79.638 139.241 79.932 139.495 80.3166L139.475 80.3459ZM128.849 75.3103C129.583 75.3103 130.306 75.3103 131.029 75.3883C133.75 75.5837 136.421 76.2198 138.938 77.2718C139.436 77.4865 139.554 77.9452 139.221 78.2477C139.12 78.3285 138.996 78.3765 138.867 78.3852C138.738 78.394 138.609 78.363 138.498 78.2965C137.048 77.6973 135.546 77.2334 134.011 76.9107C132.37 76.5779 130.7 76.4047 129.025 76.3935H128.83C128.681 76.3912 128.539 76.3325 128.431 76.2292C128.324 76.1259 128.261 75.9857 128.253 75.8373C128.272 75.689 128.346 75.5531 128.46 75.4557C128.573 75.3584 128.719 75.3066 128.869 75.3103H128.849ZM105.183 93.9792C104.724 93.9792 104.479 93.6377 104.646 93.1497C105.099 91.7189 105.678 90.331 106.376 89.0021C107.293 87.2608 108.398 85.6247 109.67 84.1226C109.721 84.054 109.787 83.9983 109.864 83.9598C109.94 83.9214 110.025 83.9014 110.11 83.9014C110.196 83.9014 110.28 83.9214 110.356 83.9598C110.433 83.9983 110.499 84.054 110.55 84.1226C110.804 84.3861 110.755 84.6399 110.482 85.0302C109.797 85.9281 109.074 86.7966 108.438 87.753C107.278 89.5167 106.373 91.4354 105.75 93.4522C105.652 93.7157 105.535 93.9792 105.183 93.9792ZM108.556 101.699C107.775 99.7298 107.147 97.7037 106.679 95.6382C106.522 95.0206 106.56 94.3699 106.786 93.7743C107.806 90.6528 109.471 87.78 111.674 85.3425C111.737 85.2663 111.806 85.1945 111.879 85.1278C112.046 85.008 112.226 84.9097 112.417 84.835C114.594 84.0778 116.831 83.5033 119.103 83.1175C119.433 83.0188 119.788 83.0524 120.092 83.2109C120.397 83.3695 120.628 83.6406 120.736 83.9665C121.772 86.2306 122.808 88.4849 123.874 90.7295C123.986 90.9584 124.038 91.2122 124.024 91.4667C124.011 91.7212 123.932 91.968 123.796 92.1836C122.144 95.1113 120.501 98.039 118.908 100.967C118.791 101.199 118.615 101.396 118.396 101.539C118.178 101.681 117.927 101.763 117.666 101.777C115.213 102.05 112.779 102.323 110.296 102.645C110.117 102.711 109.926 102.737 109.736 102.721C109.547 102.706 109.362 102.649 109.197 102.555C109.031 102.462 108.888 102.333 108.777 102.178C108.667 102.023 108.591 101.846 108.556 101.66V101.699ZM114.138 121.705C113.277 121.054 112.437 120.371 111.615 119.655C111.127 119.235 110.638 118.738 110.218 118.279C109.073 117.017 108.049 115.651 107.158 114.2C106.914 113.839 106.972 113.526 107.236 113.351C107.309 113.297 107.394 113.26 107.483 113.244C107.572 113.228 107.664 113.233 107.752 113.259C107.839 113.284 107.919 113.33 107.985 113.391C108.052 113.453 108.103 113.529 108.135 113.614C109.269 115.505 110.665 117.227 112.28 118.728C113.062 119.431 113.922 120.094 114.734 120.748C114.968 120.934 115.144 121.119 115.066 121.431C115.044 121.527 114.996 121.615 114.929 121.686C114.861 121.757 114.776 121.809 114.681 121.837C114.587 121.865 114.487 121.867 114.392 121.844C114.296 121.821 114.208 121.773 114.138 121.705ZM123.375 120.631C121.35 120.766 119.316 120.74 117.295 120.553H117.178C116.817 120.578 116.455 120.523 116.117 120.393C115.779 120.263 115.474 120.061 115.223 119.802C112.502 117.807 110.247 115.246 108.614 112.297C108.536 112.15 108.516 111.98 108.556 111.819C108.556 111.009 108.556 110.208 108.556 109.418C108.673 107.886 108.8 106.373 108.966 104.88C108.993 104.566 109.138 104.274 109.372 104.062C109.606 103.85 109.912 103.735 110.227 103.738C112.759 103.426 115.311 103.153 117.842 102.84C118.077 102.805 118.317 102.831 118.538 102.917C118.759 103.002 118.954 103.144 119.103 103.328L122.544 107.047L125.868 110.667C126.055 110.856 126.189 111.091 126.257 111.347C126.326 111.604 126.327 111.874 126.259 112.131C125.76 114.522 125.281 116.913 124.812 119.333C124.675 120.241 124.314 120.543 123.375 120.631ZM144.383 120.631C144.444 120.69 144.491 120.762 144.519 120.842C144.548 120.922 144.557 121.008 144.547 121.092C144.536 121.177 144.506 121.257 144.459 121.328C144.412 121.399 144.349 121.457 144.275 121.5C142.223 123.016 139.952 124.21 137.54 125.042C136.67 125.345 135.761 125.569 134.871 125.803C134.777 125.841 134.675 125.853 134.575 125.837C134.475 125.821 134.381 125.778 134.303 125.712C134.226 125.647 134.168 125.562 134.135 125.466C134.103 125.371 134.097 125.268 134.118 125.169C134.118 124.837 134.402 124.749 134.685 124.652C135.966 124.242 137.266 123.881 138.537 123.393C140.284 122.694 141.929 121.762 143.425 120.621C143.874 120.377 144.119 120.377 144.383 120.66V120.631ZM146.142 112.229C145.612 114.326 144.909 116.376 144.04 118.357C143.923 118.591 143.825 118.855 143.689 119.109C143.689 119.216 143.542 119.284 143.473 119.353C141.416 120.954 139.103 122.198 136.631 123.032C135.898 123.276 135.145 123.442 134.441 123.656C133.859 123.86 133.222 123.842 132.652 123.608C131.108 123.002 129.534 122.427 127.97 121.841C127.5 121.656 127.041 121.412 126.591 121.187C126.318 121.066 126.096 120.854 125.962 120.587C125.828 120.32 125.792 120.014 125.858 119.723C126.357 117.186 126.836 114.688 127.354 112.141C127.402 111.93 127.497 111.732 127.633 111.563C127.768 111.394 127.94 111.258 128.136 111.165C131.264 109.74 134.373 108.305 137.51 106.861C137.712 106.764 137.936 106.719 138.16 106.731C138.383 106.743 138.601 106.811 138.791 106.929L145.487 110.677C145.764 110.822 145.981 111.06 146.101 111.349C146.221 111.638 146.235 111.959 146.142 112.258V112.229ZM154.461 103.572C154.237 103.606 154.01 103.606 153.786 103.572C153.503 103.494 153.415 103.241 153.425 102.948C153.425 102.245 153.513 101.542 153.513 100.85C153.518 98.2718 153.115 95.7095 152.32 93.2571C152.254 93.1324 152.23 92.9894 152.253 92.8501C152.276 92.7108 152.344 92.5829 152.447 92.4861C152.525 92.4142 152.62 92.3646 152.724 92.3425C152.827 92.3204 152.935 92.3267 153.035 92.3607C153.135 92.3948 153.225 92.4552 153.293 92.5357C153.362 92.6162 153.407 92.7137 153.425 92.8179C153.887 94.2115 154.214 95.6462 154.402 97.1021C154.697 99.0396 154.759 101.005 154.588 102.957C154.572 103.177 154.529 103.393 154.461 103.602V103.572Z" fill="#273155"/>
<path d="M216.857 122.075C213.351 118.356 208.82 115.757 203.836 114.604C198.852 113.452 193.638 113.797 188.851 115.598C184.064 117.399 179.917 120.574 176.934 124.723C173.951 128.873 172.265 133.81 172.089 138.915C171.912 144.019 173.253 149.061 175.942 153.406C178.631 157.751 182.548 161.204 187.199 163.33C191.851 165.457 197.028 166.161 202.08 165.354C207.132 164.548 211.831 162.267 215.587 158.798C218.1 156.479 220.127 153.686 221.553 150.579C222.978 147.473 223.773 144.116 223.891 140.701C224.009 137.287 223.448 133.883 222.241 130.686C221.034 127.489 219.204 124.562 216.857 122.075ZM211.891 127.687C212.108 127.443 212.409 127.291 212.734 127.26C213.058 127.229 213.383 127.323 213.641 127.521C215.412 128.648 217.095 129.907 218.676 131.288C219.121 131.667 219.439 132.175 219.585 132.742C220.571 135.804 220.904 139.039 220.562 142.237C220.507 142.598 220.351 142.936 220.113 143.213C219.379 144.189 218.666 145.165 217.894 146.073C217.258 146.814 216.603 147.527 215.938 148.22C215.748 148.428 215.492 148.566 215.213 148.608C214.933 148.651 214.648 148.596 214.404 148.454L207.835 144.775C207.637 144.659 207.472 144.495 207.354 144.299C207.236 144.103 207.17 143.881 207.16 143.652C206.828 140.832 206.495 138.031 206.183 135.221C206.134 134.781 206.075 134.323 206.007 133.864C205.983 133.642 206.012 133.417 206.092 133.209C206.172 133 206.3 132.813 206.466 132.664L209.203 130.136L211.891 127.687ZM208.118 119.879C208.881 121.021 209.663 122.163 210.445 123.315C210.856 123.942 211.228 124.593 211.559 125.266C211.71 125.525 211.764 125.829 211.712 126.123C211.66 126.418 211.505 126.685 211.276 126.877L208.538 129.404L205.87 131.863C205.696 132.03 205.484 132.152 205.252 132.219C205.021 132.285 204.776 132.294 204.54 132.244C201.354 131.6 198.157 130.956 194.941 130.341C194.682 130.3 194.438 130.194 194.231 130.034C194.025 129.874 193.862 129.664 193.758 129.424C192.754 127.231 191.744 125.039 190.728 122.846C190.571 122.573 190.522 122.252 190.591 121.945C190.659 121.638 190.841 121.367 191.099 121.187C192.723 119.847 194.445 118.63 196.251 117.547C196.717 117.268 197.251 117.119 197.795 117.118C200.998 117.102 204.169 117.747 207.111 119.011C207.522 119.172 207.871 119.459 208.108 119.831L208.118 119.879ZM197.805 115C198.509 115 199.213 115 199.917 115.068C202.556 115.266 205.147 115.885 207.59 116.903C208.079 117.108 208.196 117.557 207.874 117.879C207.776 117.958 207.655 118.005 207.53 118.014C207.404 118.023 207.278 117.992 207.17 117.928C205.766 117.343 204.309 116.892 202.82 116.581C201.211 116.252 199.574 116.086 197.932 116.083C197.87 116.079 197.808 116.079 197.746 116.083C197.602 116.083 197.463 116.027 197.359 115.927C197.255 115.827 197.194 115.691 197.189 115.546C197.185 115.466 197.198 115.385 197.227 115.31C197.256 115.235 197.3 115.166 197.357 115.109C197.415 115.052 197.483 115.008 197.558 114.979C197.634 114.95 197.715 114.937 197.795 114.941L197.805 115ZM174.745 133.015C174.305 133.015 174.07 132.673 174.237 132.195C174.677 130.811 175.24 129.469 175.918 128.184C176.803 126.504 177.875 124.93 179.115 123.49C179.164 123.424 179.228 123.37 179.302 123.332C179.375 123.295 179.457 123.276 179.54 123.276C179.623 123.276 179.704 123.295 179.778 123.332C179.852 123.37 179.916 123.424 179.965 123.49C180.209 123.754 180.17 123.998 179.897 124.378C179.232 125.257 178.528 126.096 177.941 127.023C176.811 128.733 175.932 130.597 175.331 132.556C175.244 132.81 175.136 133.015 174.745 133.015ZM178.029 140.5C177.273 138.598 176.665 136.64 176.211 134.645C176.057 134.044 176.091 133.41 176.309 132.83C177.29 129.802 178.895 127.013 181.021 124.642C181.089 124.583 181.148 124.495 181.216 124.427C181.379 124.31 181.557 124.215 181.744 124.144C183.855 123.409 186.023 122.848 188.225 122.466C188.548 122.373 188.894 122.409 189.191 122.565C189.488 122.721 189.713 122.987 189.819 123.305C190.796 125.501 191.823 127.687 192.859 129.863C192.971 130.084 193.024 130.331 193.012 130.579C193 130.827 192.923 131.068 192.79 131.278C191.187 134.108 189.594 136.967 188 139.798C187.885 140.023 187.712 140.215 187.5 140.354C187.287 140.492 187.042 140.573 186.788 140.588C184.403 140.851 182.028 141.125 179.633 141.427C179.47 141.473 179.3 141.485 179.133 141.464C178.966 141.443 178.804 141.388 178.658 141.304C178.513 141.219 178.385 141.106 178.284 140.971C178.183 140.837 178.109 140.683 178.069 140.52L178.029 140.5ZM183.445 159.969C182.604 159.325 181.803 158.652 181.001 158.018C180.522 157.608 180.082 157.12 179.642 156.681C178.549 155.449 177.568 154.123 176.71 152.718C176.656 152.661 176.615 152.593 176.589 152.518C176.564 152.444 176.554 152.365 176.562 152.286C176.569 152.208 176.593 152.132 176.632 152.063C176.671 151.995 176.724 151.935 176.788 151.889C176.859 151.838 176.941 151.804 177.027 151.79C177.113 151.775 177.201 151.781 177.285 151.805C177.368 151.829 177.446 151.872 177.51 151.931C177.575 151.989 177.625 152.062 177.658 152.143C178.756 153.982 180.112 155.655 181.685 157.11C182.438 157.793 183.279 158.437 184.071 159.062C184.296 159.237 184.462 159.413 184.383 159.725C184.359 159.816 184.312 159.9 184.247 159.967C184.181 160.035 184.099 160.084 184.008 160.111C183.918 160.137 183.822 160.14 183.73 160.118C183.638 160.097 183.554 160.053 183.484 159.989L183.445 159.969ZM192.419 158.925C190.465 159.048 188.504 159.022 186.554 158.847H186.436C186.076 158.88 185.714 158.831 185.375 158.704C185.037 158.577 184.731 158.376 184.481 158.115C181.841 156.177 179.653 153.69 178.069 150.825C177.99 150.686 177.969 150.521 178.01 150.367C178.01 149.586 178.01 148.805 178.01 148.034C178.117 146.551 178.245 145.106 178.411 143.633C178.428 143.335 178.555 143.054 178.768 142.844C178.982 142.635 179.265 142.512 179.564 142.501C182.028 142.198 184.501 141.925 186.954 141.622C187.184 141.588 187.418 141.614 187.634 141.698C187.85 141.782 188.04 141.921 188.186 142.101L191.529 145.711L194.824 149.274C195.004 149.457 195.133 149.683 195.2 149.931C195.267 150.179 195.268 150.44 195.205 150.689C194.726 153.011 194.227 155.334 193.797 157.676C193.719 158.564 193.367 158.857 192.458 158.945L192.419 158.925ZM212.81 158.925C212.87 158.981 212.916 159.051 212.944 159.128C212.972 159.205 212.982 159.288 212.972 159.369C212.963 159.451 212.934 159.529 212.889 159.598C212.844 159.666 212.784 159.723 212.713 159.764C210.724 161.241 208.518 162.399 206.173 163.2C205.332 163.492 204.443 163.717 203.573 163.951C203.482 163.987 203.383 163.998 203.287 163.982C203.19 163.966 203.1 163.924 203.026 163.861C202.951 163.798 202.896 163.715 202.864 163.623C202.833 163.531 202.828 163.431 202.849 163.336C202.849 163.004 203.123 162.917 203.397 162.819C204.638 162.429 205.909 162.077 207.141 161.609C208.847 160.928 210.455 160.022 211.921 158.915C212.361 158.701 212.595 158.701 212.869 158.974L212.81 158.925ZM214.521 150.757C214.012 152.796 213.329 154.788 212.478 156.71C212.361 156.944 212.273 157.198 212.136 157.452C212.136 157.549 211.999 157.617 211.931 157.676C209.929 159.235 207.679 160.446 205.274 161.258C204.56 161.492 203.827 161.658 203.142 161.863C202.579 162.057 201.964 162.039 201.412 161.814C199.907 161.228 198.372 160.662 196.857 160.096C196.4 159.909 195.952 159.697 195.518 159.462C195.253 159.345 195.038 159.14 194.907 158.882C194.777 158.624 194.741 158.329 194.804 158.047C195.293 155.578 195.782 153.167 196.261 150.689C196.301 150.477 196.391 150.278 196.524 150.109C196.656 149.939 196.828 149.803 197.023 149.713C200.053 148.337 203.074 146.931 206.124 145.536C206.32 145.441 206.536 145.398 206.754 145.409C206.971 145.421 207.181 145.488 207.365 145.604C209.545 146.814 211.686 148.024 213.866 149.244C214.156 149.371 214.387 149.602 214.516 149.891C214.644 150.18 214.66 150.506 214.56 150.806L214.521 150.757ZM222.605 142.364C222.388 142.393 222.168 142.393 221.95 142.364C221.848 142.313 221.765 142.23 221.714 142.128C221.663 142.026 221.646 141.91 221.667 141.798C221.667 141.115 221.755 140.432 221.745 139.758C221.753 137.254 221.364 134.764 220.592 132.381C220.527 132.26 220.505 132.122 220.528 131.988C220.551 131.854 220.618 131.731 220.719 131.639C220.795 131.577 220.886 131.535 220.983 131.518C221.08 131.5 221.18 131.508 221.273 131.541C221.366 131.573 221.45 131.629 221.515 131.702C221.581 131.776 221.626 131.865 221.647 131.961C222.106 133.312 222.433 134.704 222.625 136.118C222.907 137.985 222.969 139.878 222.811 141.759C222.779 141.982 222.723 142.202 222.644 142.413L222.605 142.364Z" fill="#273155"/>
<path d="M168.978 117.303C166.162 114.323 162.526 112.243 158.527 111.323C154.529 110.403 150.347 110.685 146.509 112.134C142.671 113.584 139.349 116.134 136.96 119.466C134.572 122.797 133.225 126.759 133.09 130.853C132.954 134.947 134.035 138.99 136.197 142.472C138.359 145.954 141.504 148.719 145.238 150.418C148.971 152.118 153.125 152.676 157.176 152.023C161.227 151.369 164.993 149.533 168 146.746C170.011 144.883 171.632 142.641 172.77 140.149C173.908 137.657 174.541 134.965 174.632 132.228C174.723 129.491 174.27 126.763 173.299 124.201C172.329 121.64 170.86 119.295 168.978 117.303ZM164.97 121.802C165.051 121.7 165.153 121.615 165.268 121.552C165.383 121.49 165.509 121.451 165.64 121.438C165.77 121.425 165.902 121.439 166.027 121.478C166.152 121.517 166.268 121.581 166.368 121.665C167.789 122.569 169.139 123.58 170.405 124.691C170.76 124.996 171.015 125.401 171.138 125.852C171.931 128.31 172.204 130.905 171.94 133.474C171.9 133.764 171.774 134.036 171.578 134.255C170.991 135.016 170.424 135.806 169.799 136.548C169.291 137.143 168.821 137.719 168.225 138.266C168.075 138.436 167.869 138.549 167.644 138.585C167.419 138.62 167.189 138.576 166.993 138.461L161.734 135.533C161.575 135.438 161.442 135.306 161.346 135.148C161.251 134.989 161.196 134.81 161.187 134.625C160.913 132.368 160.652 130.117 160.405 127.872C160.405 127.511 160.317 127.15 160.268 126.779C160.245 126.599 160.266 126.417 160.329 126.247C160.392 126.077 160.495 125.925 160.63 125.803L162.829 123.783L164.97 121.802ZM161.939 115.498C162.545 116.415 163.181 117.332 163.807 118.26C164.138 118.771 164.439 119.302 164.706 119.85C164.822 120.061 164.863 120.304 164.82 120.541C164.777 120.777 164.654 120.992 164.471 121.148L162.282 123.168L160.141 125.12C160.002 125.255 159.832 125.353 159.646 125.406C159.46 125.459 159.264 125.465 159.075 125.423C156.514 124.915 153.953 124.398 151.372 123.9C151.16 123.872 150.959 123.79 150.788 123.662C150.617 123.533 150.481 123.364 150.395 123.168C149.583 121.402 148.782 119.645 147.97 117.889C147.837 117.673 147.793 117.414 147.848 117.166C147.902 116.918 148.052 116.701 148.264 116.562C149.565 115.482 150.948 114.503 152.399 113.634C152.769 113.407 153.196 113.289 153.63 113.292C156.201 113.278 158.746 113.793 161.108 114.805C161.46 114.937 161.759 115.18 161.959 115.498H161.939ZM153.669 111.594C154.236 111.594 154.794 111.594 155.361 111.643C157.48 111.8 159.559 112.297 161.519 113.117C161.91 113.283 161.998 113.644 161.744 113.907C161.661 113.965 161.562 113.995 161.46 113.995C161.359 113.995 161.26 113.965 161.177 113.907C160.05 113.438 158.882 113.075 157.687 112.824C156.4 112.562 155.09 112.428 153.777 112.424H153.621C153.505 112.424 153.393 112.379 153.309 112.299C153.226 112.219 153.176 112.11 153.171 111.994C153.173 111.93 153.189 111.867 153.216 111.809C153.244 111.751 153.284 111.7 153.332 111.657C153.381 111.615 153.438 111.584 153.499 111.564C153.56 111.545 153.625 111.539 153.689 111.545L153.669 111.594ZM135.243 126.086C134.891 126.086 134.705 125.813 134.822 125.432C135.181 124.323 135.632 123.246 136.171 122.212C136.889 120.867 137.751 119.604 138.742 118.445C138.783 118.392 138.834 118.35 138.894 118.32C138.953 118.291 139.018 118.276 139.085 118.276C139.151 118.276 139.216 118.291 139.275 118.32C139.335 118.35 139.387 118.392 139.427 118.445C139.622 118.65 139.583 118.845 139.368 119.148C138.84 119.85 138.273 120.524 137.775 121.275C136.859 122.641 136.142 124.129 135.644 125.696C135.644 125.911 135.517 126.096 135.243 126.086ZM137.872 132.098C137.262 130.564 136.772 128.984 136.406 127.374C136.287 126.895 136.318 126.391 136.494 125.93C137.277 123.501 138.562 121.263 140.267 119.362C140.267 119.362 140.365 119.235 140.424 119.187C140.555 119.097 140.696 119.022 140.844 118.962C142.538 118.372 144.277 117.922 146.045 117.615C146.303 117.542 146.579 117.571 146.816 117.696C147.053 117.822 147.232 118.034 147.315 118.289C148.127 120.045 148.928 121.802 149.759 123.549C149.846 123.727 149.887 123.925 149.876 124.123C149.866 124.321 149.806 124.513 149.701 124.681L145.859 131.512C145.766 131.695 145.627 131.849 145.455 131.961C145.284 132.072 145.086 132.136 144.881 132.147C142.926 132.361 141.059 132.576 139.143 132.82C139.012 132.864 138.874 132.881 138.736 132.867C138.598 132.854 138.465 132.812 138.345 132.744C138.225 132.676 138.121 132.583 138.039 132.472C137.958 132.36 137.901 132.233 137.872 132.098ZM142.213 147.712C141.548 147.195 140.893 146.658 140.258 146.112C139.876 145.79 139.515 145.399 139.163 145.048C138.279 144.057 137.481 142.992 136.778 141.867C136.734 141.821 136.701 141.766 136.68 141.706C136.66 141.646 136.652 141.582 136.659 141.519C136.665 141.456 136.685 141.395 136.718 141.341C136.75 141.286 136.794 141.239 136.846 141.203C136.902 141.161 136.967 141.132 137.037 141.119C137.106 141.107 137.177 141.111 137.245 141.13C137.312 141.15 137.374 141.186 137.426 141.234C137.477 141.282 137.516 141.342 137.54 141.408C138.426 142.877 139.512 144.217 140.766 145.39C141.382 145.936 142.046 146.453 142.721 146.961C142.907 147.107 143.034 147.254 142.975 147.498C142.959 147.578 142.921 147.653 142.865 147.713C142.809 147.773 142.737 147.816 142.658 147.837C142.578 147.858 142.495 147.857 142.416 147.833C142.337 147.81 142.267 147.764 142.213 147.702V147.712ZM149.407 146.873C147.831 146.98 146.249 146.961 144.676 146.814H144.588C144.303 146.835 144.018 146.794 143.751 146.693C143.484 146.591 143.243 146.433 143.044 146.229C140.924 144.673 139.17 142.675 137.902 140.373C137.841 140.263 137.824 140.135 137.853 140.012C137.853 139.378 137.853 138.753 137.853 138.139C137.931 136.948 138.039 135.767 138.166 134.606C138.182 134.367 138.286 134.143 138.457 133.976C138.628 133.808 138.855 133.71 139.094 133.698C141.049 133.454 143.053 133.24 145.018 132.996C145.2 132.969 145.386 132.989 145.558 133.056C145.729 133.123 145.88 133.233 145.996 133.376L148.674 136.304L151.323 139.154C151.467 139.302 151.571 139.485 151.624 139.685C151.677 139.885 151.678 140.095 151.626 140.295C151.235 142.159 150.874 144.014 150.502 145.897C150.424 146.561 150.141 146.795 149.407 146.863V146.873ZM165.762 146.873C165.81 146.919 165.847 146.975 165.87 147.038C165.893 147.101 165.901 147.168 165.894 147.234C165.886 147.3 165.863 147.364 165.827 147.42C165.79 147.476 165.741 147.522 165.683 147.556C164.089 148.737 162.321 149.665 160.444 150.308C159.759 150.542 159.056 150.718 158.352 150.903C158.28 150.935 158.2 150.946 158.122 150.935C158.044 150.923 157.971 150.89 157.911 150.84C157.85 150.789 157.806 150.722 157.782 150.647C157.758 150.572 157.756 150.492 157.775 150.415C157.775 150.152 157.99 150.084 158.215 150.006C159.193 149.693 160.229 149.41 161.216 149.03C162.585 148.487 163.874 147.761 165.048 146.873C165.371 146.678 165.556 146.678 165.762 146.883V146.873ZM167.13 140.334C166.723 141.969 166.177 143.565 165.498 145.107C165.4 145.292 165.331 145.497 165.224 145.692C165.181 145.767 165.121 145.831 165.048 145.878C163.448 147.134 161.642 148.105 159.711 148.747C159.144 148.932 158.557 149.069 158.01 149.235C157.563 149.404 157.069 149.404 156.622 149.235C155.419 148.766 154.188 148.259 152.975 147.859C152.608 147.709 152.249 147.54 151.9 147.351C151.682 147.262 151.504 147.097 151.398 146.888C151.292 146.678 151.266 146.437 151.323 146.209C151.714 144.258 152.096 142.306 152.487 140.305C152.523 140.138 152.597 139.982 152.704 139.848C152.811 139.714 152.947 139.607 153.102 139.534L160.395 136.177C160.55 136.106 160.72 136.074 160.891 136.084C161.062 136.094 161.227 136.146 161.372 136.236C163.122 137.212 164.843 138.187 166.593 139.163C166.804 139.269 166.972 139.444 167.07 139.659C167.168 139.874 167.189 140.116 167.13 140.344V140.334ZM173.611 133.601C173.436 133.625 173.258 133.625 173.083 133.601C172.868 133.542 172.8 133.347 172.81 133.123C172.81 132.566 172.878 132.02 172.868 131.483C172.878 129.475 172.564 127.478 171.94 125.569C171.891 125.471 171.875 125.361 171.895 125.254C171.914 125.146 171.968 125.048 172.047 124.974C172.108 124.923 172.18 124.889 172.258 124.875C172.335 124.861 172.415 124.867 172.49 124.892C172.565 124.918 172.632 124.962 172.684 125.021C172.737 125.079 172.773 125.151 172.79 125.228C173.159 126.312 173.42 127.43 173.572 128.565C173.805 130.063 173.857 131.583 173.729 133.093C173.708 133.269 173.669 133.443 173.611 133.61V133.601Z" fill="#273155"/>
<path d="M218.294 72.1091C212.595 66.0626 205.231 61.8356 197.129 59.9607C189.028 58.0859 180.552 58.6472 172.769 61.5738C164.987 64.5004 158.246 69.6614 153.397 76.4064C148.548 83.1514 145.807 91.1784 145.52 99.4759C145.233 107.773 147.413 115.97 151.785 123.032C156.157 130.095 162.525 135.708 170.087 139.163C177.649 142.618 186.067 143.761 194.278 142.448C202.49 141.136 210.129 137.425 216.232 131.785C220.314 128.016 223.609 123.476 225.924 118.428C228.24 113.381 229.531 107.925 229.723 102.376C229.914 96.8279 229.003 91.2963 227.042 86.1013C225.08 80.9063 222.107 76.1507 218.294 72.1091ZM210.2 81.2338C210.551 80.8366 211.04 80.5874 211.568 80.5366C212.097 80.4859 212.624 80.6374 213.045 80.9605C215.923 82.7902 218.659 84.8357 221.227 87.0794C221.947 87.701 222.464 88.5235 222.713 89.4411C224.323 94.4187 224.876 99.6769 224.335 104.88C224.252 105.47 223.997 106.023 223.602 106.471C222.41 108.003 221.256 109.603 220.005 111.116C218.969 112.326 217.913 113.477 216.808 114.61C216.503 114.955 216.086 115.182 215.63 115.249C215.174 115.317 214.708 115.222 214.316 114.98L203.651 109.008C203.328 108.823 203.058 108.559 202.865 108.242C202.672 107.924 202.562 107.564 202.546 107.193C201.999 102.638 201.467 98.0843 200.953 93.5301C200.874 92.8079 200.786 92.076 200.679 91.3246C200.636 90.9635 200.681 90.5975 200.81 90.2576C200.94 89.9178 201.15 89.6142 201.422 89.3728L205.87 85.274L210.2 81.2338ZM204.071 68.469C205.303 70.3232 206.583 72.1774 207.854 74.0512C208.524 75.0907 209.131 76.1694 209.672 77.2814C209.911 77.7054 209.995 78.1991 209.909 78.6779C209.823 79.1568 209.574 79.5911 209.203 79.9065L204.765 84.0053L200.425 87.9967C200.141 88.266 199.797 88.4632 199.421 88.5719C199.045 88.6806 198.648 88.6975 198.264 88.6213C193.074 87.5771 187.893 86.5329 182.624 85.5277C182.198 85.4654 181.794 85.2956 181.452 85.0343C181.11 84.773 180.84 84.429 180.669 84.0346C179.036 80.4628 177.404 76.9105 175.781 73.3485C175.524 72.9065 175.443 72.3846 175.554 71.8859C175.664 71.3871 175.958 70.9479 176.377 70.655C179.019 68.4785 181.819 66.5017 184.755 64.7411C185.509 64.2845 186.375 64.0447 187.257 64.0482C192.462 64.0225 197.616 65.0655 202.399 67.1125C203.087 67.3756 203.673 67.8508 204.071 68.469ZM187.316 60.5252C188.46 60.5252 189.603 60.5252 190.737 60.6325C195.029 60.9333 199.244 61.9218 203.22 63.5602C204.012 63.9018 204.198 64.624 203.67 65.1607C203.513 65.2938 203.318 65.3739 203.113 65.3897C202.907 65.4055 202.702 65.3561 202.526 65.2485C197.794 63.2765 192.718 62.2551 187.59 62.2428C187.482 62.2428 187.404 62.2428 187.287 62.2428C187.05 62.243 186.822 62.1517 186.65 61.988C186.479 61.8243 186.378 61.6009 186.368 61.3645C186.4 61.1349 186.513 60.9244 186.687 60.7707C186.861 60.6169 187.084 60.5299 187.316 60.5252ZM149.935 89.9193C149.211 89.9193 148.84 89.3728 149.094 88.592C149.808 86.3395 150.721 84.1546 151.821 82.0633C153.274 79.3427 155.018 76.7872 157.022 74.4415C157.098 74.3308 157.2 74.2394 157.318 74.1744C157.435 74.1094 157.567 74.0726 157.701 74.0669C157.836 74.0612 157.97 74.0868 158.093 74.1417C158.216 74.1965 158.325 74.2791 158.41 74.383C158.801 74.8124 158.733 75.2125 158.303 75.8175C157.217 77.2423 156.074 78.6086 155.067 80.1212C153.234 82.9055 151.806 85.9348 150.824 89.119C150.678 89.5582 150.492 89.9388 149.935 89.9193ZM155.262 102.089C154.037 98.9852 153.057 95.7908 152.33 92.5347C152.083 91.5649 152.141 90.5428 152.496 89.607C154.072 84.6895 156.655 80.153 160.082 76.286C160.199 76.1884 160.297 76.042 160.404 75.9444C160.673 75.7598 160.961 75.6059 161.264 75.4857C164.698 74.2803 168.226 73.363 171.812 72.7435C172.333 72.5867 172.895 72.6398 173.378 72.8915C173.86 73.1432 174.224 73.5735 174.393 74.0902C176.025 77.662 177.658 81.2142 179.339 84.747C179.516 85.1096 179.598 85.511 179.577 85.9136C179.557 86.3163 179.434 86.7072 179.222 87.0501C176.622 91.6466 174.031 96.2919 171.402 100.898C171.217 101.264 170.939 101.575 170.596 101.799C170.252 102.023 169.856 102.154 169.446 102.177C165.536 102.606 161.714 103.055 157.824 103.543C157.56 103.62 157.283 103.643 157.01 103.611C156.737 103.579 156.474 103.492 156.235 103.357C155.996 103.221 155.787 103.039 155.62 102.821C155.453 102.603 155.331 102.354 155.262 102.089ZM164.06 133.718C162.701 132.673 161.392 131.58 160.091 130.487C159.319 129.814 158.596 129.033 157.872 128.311C156.077 126.315 154.465 124.163 153.053 121.88C152.672 121.304 152.76 120.816 153.18 120.533C153.294 120.449 153.426 120.391 153.566 120.366C153.706 120.341 153.85 120.349 153.986 120.388C154.123 120.428 154.248 120.499 154.352 120.595C154.457 120.691 154.537 120.811 154.588 120.943C156.379 123.928 158.584 126.646 161.137 129.014C162.369 130.126 163.718 131.171 165.048 132.205C165.419 132.498 165.693 132.791 165.566 133.288C165.534 133.447 165.46 133.593 165.35 133.712C165.24 133.831 165.1 133.918 164.944 133.962C164.789 134.006 164.624 134.007 164.468 133.964C164.312 133.921 164.171 133.836 164.06 133.718ZM178.655 132.039C175.463 132.241 172.26 132.198 169.075 131.912C169.016 131.912 168.938 131.912 168.889 131.912C167.589 132.146 166.709 131.415 165.771 130.731C161.481 127.58 157.926 123.538 155.35 118.884C155.222 118.656 155.184 118.388 155.243 118.133C155.243 116.864 155.243 115.585 155.311 114.346C155.487 111.936 155.693 109.554 155.956 107.183C155.985 106.697 156.195 106.24 156.544 105.901C156.893 105.561 157.356 105.364 157.843 105.348C161.831 104.86 165.859 104.421 169.847 103.923C170.212 103.873 170.584 103.918 170.926 104.053C171.269 104.188 171.57 104.409 171.802 104.694L177.237 110.55L182.594 116.337C182.889 116.634 183.102 117.002 183.211 117.406C183.321 117.81 183.324 118.235 183.22 118.64C182.428 122.407 181.695 126.174 180.933 129.999C180.698 131.405 180.121 131.883 178.655 132.039ZM211.793 132.039C211.893 132.13 211.969 132.242 212.016 132.368C212.063 132.494 212.08 132.629 212.065 132.762C212.049 132.895 212.003 133.023 211.928 133.135C211.854 133.247 211.754 133.339 211.637 133.405C208.402 135.798 204.818 137.681 201.011 138.987C199.633 139.466 198.196 139.817 196.788 140.207C196.643 140.264 196.484 140.28 196.33 140.255C196.176 140.23 196.031 140.165 195.911 140.065C195.79 139.966 195.698 139.836 195.645 139.69C195.591 139.543 195.578 139.385 195.605 139.231C195.654 138.704 196.055 138.558 196.505 138.402C198.519 137.768 200.581 137.202 202.575 136.45C205.347 135.337 207.955 133.853 210.327 132.039C210.982 131.619 211.363 131.619 211.774 132.039H211.793ZM214.57 118.777C213.74 122.085 212.632 125.317 211.256 128.438C211.07 128.819 210.923 129.238 210.708 129.638C210.623 129.789 210.502 129.916 210.357 130.009C207.113 132.562 203.457 134.542 199.545 135.865C198.382 136.245 197.199 136.518 196.084 136.841C195.166 137.148 194.167 137.117 193.269 136.753C190.835 135.777 188.381 134.879 185.879 133.962C185.136 133.674 184.408 133.348 183.699 132.986C183.271 132.791 182.923 132.457 182.711 132.039C182.5 131.62 182.438 131.141 182.536 130.683C183.337 126.672 184.11 122.719 184.901 118.718C184.97 118.379 185.117 118.06 185.331 117.787C185.545 117.514 185.819 117.295 186.133 117.147C191.07 114.902 195.967 112.619 200.933 110.316C201.25 110.16 201.6 110.088 201.953 110.105C202.305 110.122 202.647 110.228 202.947 110.413L213.514 116.337C213.95 116.561 214.294 116.931 214.483 117.383C214.673 117.834 214.696 118.338 214.55 118.806L214.57 118.777ZM227.708 105.114C227.355 105.167 226.995 105.167 226.642 105.114C226.446 105.046 226.281 104.91 226.175 104.731C226.07 104.553 226.031 104.343 226.066 104.138C226.066 103.026 226.212 101.913 226.202 100.83C226.21 96.7616 225.577 92.7175 224.326 88.8458C224.213 88.6501 224.172 88.4216 224.21 88.1992C224.247 87.9768 224.361 87.7743 224.531 87.6259C224.658 87.5357 224.805 87.4772 224.96 87.4554C225.115 87.4337 225.273 87.4492 225.42 87.5009C225.567 87.5525 225.7 87.6386 225.808 87.7521C225.915 87.8655 225.993 88.003 226.036 88.1529C226.786 90.3468 227.32 92.6086 227.63 94.9061C228.092 97.9414 228.193 101.021 227.933 104.08C227.893 104.446 227.811 104.806 227.688 105.153L227.708 105.114Z" fill="#273155"/>
<path d="M247.327 165.298L237.356 120.572C236.559 116.233 234.614 112.184 231.723 108.847C228.833 105.51 225.101 103.005 220.914 101.591C190.874 91.4222 115.838 72.7825 31.0465 102.879C27.8147 104.039 24.9515 106.039 22.752 108.673C20.5526 111.306 19.0965 114.477 18.534 117.859L9.95117 165.298C9.95117 165.298 123.561 107.349 247.327 165.298Z" fill="#9CA9D2"/>
<path d="M206.72 183.674C215.117 181.566 227.747 178.746 234.639 173.252C245.001 164.995 228.989 158.457 221.843 156.466C211.53 153.597 200.493 149.928 191.441 147.976L187.619 138.871C187.619 138.871 306.664 161.873 209.32 189.754L206.72 183.674Z" fill="#273155"/>
<path d="M69.7278 138.744C69.7278 138.744 119.142 126.057 187.609 138.744L191.656 148.405C191.656 148.405 127.188 133.035 65.5537 148.405L69.7278 138.744Z" fill="#273155"/>
<path d="M50.5979 183.547C42.2106 181.43 29.571 178.609 22.6794 173.115C12.3175 164.859 28.3295 158.33 35.4754 156.329C45.7884 153.46 56.5022 150.386 65.5542 148.425L69.699 138.744C69.699 138.744 -49.3164 161.746 48.027 189.617L50.5979 183.547Z" fill="#273155"/>
<path d="M23.0508 142.774C25.9182 131.714 28.7792 120.654 31.6336 109.593C39.7374 107.486 43.6182 106.558 51.1844 104.919C50.8422 106.578 50.6663 107.427 50.3143 109.164C44.9281 110.364 42.1714 111.028 36.5115 112.472C35.7588 115.556 35.3775 117.157 34.5564 120.533C39.2095 119.294 41.4774 118.718 45.9447 117.606C45.5537 119.47 45.3484 120.426 44.9672 122.397C40.4314 123.52 38.1244 124.115 33.4029 125.413L29.6198 140.822C27.0294 141.574 25.7097 141.974 23.0508 142.774Z" fill="white"/>
<path d="M63.3058 132.927C60.8309 133.581 58.2034 133.332 55.8961 132.225C53.8797 131.106 52.3894 129.236 51.7513 127.023C50.9755 124.29 50.9082 121.406 51.5558 118.64C52.1186 115.628 53.2785 112.758 54.9674 110.199C56.516 107.836 58.5077 105.795 60.8326 104.187C63.0574 102.655 65.5889 101.622 68.2521 101.162C70.5352 100.65 72.92 100.837 75.0949 101.699C76.9338 102.498 78.3912 103.978 79.1615 105.827C80.0801 108.192 80.3468 110.76 79.9337 113.263C79.579 116.315 78.6398 119.27 77.1673 121.968C75.6978 124.692 73.7047 127.099 71.3021 129.053C68.9915 130.974 66.2469 132.304 63.3058 132.927ZM64.2833 126.769C66.0853 126.421 67.7679 125.618 69.171 124.437C70.6314 123.196 71.8337 121.68 72.7097 119.977C73.654 118.146 74.2693 116.165 74.5279 114.122C74.8394 112.391 74.7322 110.611 74.2151 108.93C74.0197 108.329 73.7076 107.772 73.2967 107.292C72.8858 106.811 72.3841 106.416 71.8202 106.129C70.4952 105.559 69.0215 105.428 67.6168 105.758C65.9602 106.054 64.3926 106.721 63.0321 107.71C61.5917 108.755 60.3807 110.084 59.4739 111.614C58.4109 113.394 57.6883 115.357 57.3428 117.401C56.9247 119.245 56.9247 121.159 57.3428 123.002C57.503 123.692 57.8001 124.343 58.2165 124.916C58.6329 125.489 59.1602 125.974 59.7671 126.34C61.163 127.052 62.778 127.205 64.2833 126.769Z" fill="white"/>
<path d="M95.6816 127.736C93.2421 128.096 90.753 127.595 88.6433 126.321C86.6493 125.029 85.1402 123.114 84.3519 120.875C83.4259 118.271 83.1376 115.484 83.5113 112.746C83.7646 109.974 84.6185 107.29 86.0138 104.88C87.266 102.74 88.9954 100.917 91.0676 99.5516C93.1028 98.2313 95.4333 97.4334 97.8518 97.229C100.085 96.9538 102.351 97.3336 104.372 98.322C106.228 99.2853 107.717 100.827 108.614 102.714C109.671 105.019 110.135 107.552 109.963 110.082C109.892 112.948 109.226 115.769 108.008 118.367C106.863 120.85 105.152 123.032 103.013 124.74C100.903 126.411 98.3602 127.45 95.6816 127.736ZM96.102 121.88C97.7221 121.717 99.2586 121.083 100.52 120.055C101.829 118.97 102.864 117.593 103.541 116.035C104.308 114.273 104.736 112.382 104.802 110.462C104.947 108.729 104.703 106.986 104.088 105.358C103.594 104.131 102.708 103.102 101.566 102.431C100.333 101.774 98.9241 101.522 97.539 101.708C96.036 101.832 94.5926 102.351 93.3551 103.211C92.073 104.117 91.0298 105.319 90.3149 106.715C89.474 108.393 88.9724 110.22 88.8388 112.092C88.6152 113.918 88.7818 115.771 89.3276 117.528C89.7689 118.933 90.6622 120.155 91.8692 121.002C93.133 121.782 94.6336 122.086 96.102 121.861V121.88Z" fill="white"/>
<path d="M119.397 125.374C119.475 113.77 119.504 108.94 119.563 100.254C116.631 100.332 115.096 100.401 112.104 100.557C112.153 98.9466 112.173 98.1659 112.222 96.6532C120.042 96.2629 123.952 96.1848 131.685 96.2531C131.685 97.7755 131.753 98.5562 131.792 100.157C128.86 100.157 127.374 100.157 124.421 100.157C124.49 108.832 124.529 113.653 124.617 125.247C122.525 125.276 121.489 125.306 119.397 125.374Z" fill="white"/>
<path d="M136.259 125.208L135.115 96.2334C139.211 96.3115 141.264 96.3895 145.389 96.5945C146.943 96.6328 148.471 96.9952 149.876 97.6582C151.052 98.2173 152.062 99.0714 152.809 100.137C153.532 101.195 153.967 102.422 154.07 103.699C154.229 104.861 154.046 106.045 153.542 107.105C153.082 107.989 152.362 108.71 151.479 109.174C150.547 109.649 149.515 109.897 148.468 109.896L149.035 109.476C150.225 109.607 151.36 110.044 152.33 110.745C153.347 111.49 154.188 112.45 154.793 113.556C155.447 114.725 155.846 116.018 155.966 117.352C156.151 118.863 155.939 120.397 155.35 121.802C154.798 123.078 153.83 124.13 152.603 124.788C151.121 125.525 149.461 125.83 147.813 125.667C143.18 125.432 140.873 125.335 136.259 125.208ZM140.531 107.32C142.486 107.388 143.415 107.427 145.34 107.534C145.857 107.605 146.383 107.571 146.887 107.435C147.39 107.299 147.862 107.064 148.273 106.744C148.6 106.404 148.844 105.992 148.985 105.541C149.126 105.091 149.16 104.614 149.084 104.148C149.043 103.152 148.611 102.213 147.882 101.533C147.022 100.838 145.948 100.462 144.842 100.469C142.975 100.381 142.036 100.332 140.169 100.274C140.296 102.977 140.374 104.372 140.531 107.32ZM141.225 120.153C143.375 120.231 144.441 120.28 146.601 120.406C147.17 120.483 147.749 120.436 148.297 120.267C148.846 120.099 149.351 119.813 149.778 119.431C150.149 118.999 150.421 118.491 150.575 117.943C150.728 117.395 150.76 116.82 150.668 116.259C150.625 115.025 150.115 113.853 149.241 112.98C148.333 112.155 147.154 111.69 145.927 111.672C143.854 111.565 142.818 111.516 140.756 111.438C140.932 114.766 141.029 116.503 141.225 120.153Z" fill="white"/>
<path d="M159.163 126.574C161.118 117.089 163.073 107.613 165.517 98.2732C167.765 98.5172 168.899 98.644 171.167 98.9271C176.319 109.242 181.207 119.684 185.918 130.214C183.553 129.795 182.37 129.6 180.053 129.239C175.214 117.752 173.083 112.941 169.105 104.275C167.394 112.268 166.544 116.708 164.794 127.189C162.526 126.896 161.402 126.779 159.163 126.574ZM162.77 119.47C163.112 117.606 163.279 116.698 163.621 114.932C169.085 115.508 171.832 115.849 177.433 116.669C178.274 118.621 178.704 119.597 179.574 121.626C172.79 120.573 169.408 120.153 162.77 119.47Z" fill="white"/>
<path d="M189.74 130.878C187.883 120.833 186.038 110.794 184.207 100.762C186.27 101.094 187.306 101.269 189.398 101.63C191.099 110.316 192.047 115.117 194.364 126.721C199.486 127.697 202.086 128.302 207.414 129.541C207.903 131.639 208.157 132.713 208.665 134.918C200.884 133.015 197.111 132.254 189.74 130.878Z" fill="white"/>
<path d="M213.847 136.187C211.285 125.777 208.731 115.368 206.183 104.958C208.382 105.436 209.487 105.69 211.725 106.207C214.071 115.244 215.362 120.231 218.519 132.332C224.042 133.776 226.858 134.567 232.664 136.236L234.326 141.876C225.812 139.329 221.735 138.197 213.847 136.187Z" fill="white"/>
<path d="M92.4455 138.246C116.059 135.808 139.861 135.808 163.474 138.246L165.693 163.541C165.693 163.541 124.128 159.169 90.2656 163.541L92.4455 138.246Z" fill="#273155"/>
<path d="M92.6321 134.782C116.148 132.356 139.851 132.356 163.367 134.782L165.576 159.979C165.576 159.979 124.187 155.627 90.4619 159.979L92.6321 134.782Z" fill="#9CA9D2"/>
<path d="M93.3945 156.154C94.1668 147.683 94.5089 144.023 95.1248 137.27L98.859 136.938C102.036 141.291 103.649 143.613 106.963 148.786C107.285 143.389 107.432 140.978 107.715 136.314C109.192 136.226 109.934 136.187 111.411 136.118C111.068 142.813 110.883 146.443 110.433 154.846C108.889 154.924 108.116 154.963 106.523 155.061C103.17 149.498 101.547 147 98.3507 142.374C97.9401 147.331 97.725 149.976 97.246 155.802C95.7504 155.919 94.9684 155.997 93.3945 156.154Z" fill="white"/>
<path d="M123.59 154.797C121.803 154.855 120.035 154.413 118.487 153.519C117.057 152.669 115.903 151.425 115.163 149.937C114.38 148.344 114.026 146.575 114.137 144.804C114.187 143.082 114.678 141.402 115.564 139.925C116.405 138.56 117.597 137.445 119.015 136.694C120.523 135.892 122.203 135.466 123.912 135.455C125.606 135.406 127.286 135.778 128.8 136.538C130.188 137.253 131.342 138.35 132.124 139.7C132.959 141.189 133.381 142.874 133.346 144.58C133.382 146.37 132.968 148.142 132.143 149.732C131.377 151.234 130.223 152.504 128.8 153.411C127.223 154.34 125.421 154.82 123.59 154.797ZM123.658 151.235C124.745 151.264 125.817 150.974 126.741 150.402C127.665 149.829 128.401 149 128.859 148.015C129.366 146.927 129.62 145.74 129.602 144.541C129.647 143.381 129.405 142.228 128.898 141.183C128.465 140.314 127.785 139.591 126.943 139.105C126.015 138.612 124.973 138.373 123.922 138.412C122.859 138.401 121.811 138.667 120.882 139.183C120.007 139.682 119.289 140.416 118.81 141.301C118.271 142.346 117.987 143.502 117.979 144.677C117.911 145.861 118.122 147.044 118.595 148.132C119.007 149.074 119.687 149.874 120.55 150.435C121.486 150.997 122.566 151.275 123.658 151.235Z" fill="white"/>
<path d="M139.945 154.67C137.657 146.17 136.592 142.511 134.529 135.777L138.439 135.874C139.867 141.154 140.61 143.974 142.154 150.288C143.63 144.111 144.344 141.339 145.742 136.167C147.384 136.255 148.215 136.294 149.857 136.401C151.656 141.759 152.584 144.638 154.559 151.04C155.625 144.862 156.143 142.091 157.179 136.909C158.802 137.046 159.613 137.114 161.255 137.27C159.633 143.877 158.811 147.449 157.12 155.812C155.234 155.636 154.295 155.558 152.418 155.412C150.551 149.108 149.662 146.278 147.951 140.998C146.612 146.102 145.927 148.805 144.52 154.904C142.702 154.787 141.783 154.739 139.945 154.67Z" fill="white"/>
</g>
<defs>
<clipPath id="clip0_356_3332">
<rect width="262" height="230" fill="white"/>
</clipPath>
</defs>
</svg>
