<svg width="819" height="1022" viewBox="0 0 819 1022" fill="none" xmlns="http://www.w3.org/2000/svg">
<rect width="819" height="10" fill="#D9D9D9" fill-opacity="0.1"/>
<rect y="16" width="819" height="10" fill="#D9D9D9" fill-opacity="0.1"/>
<rect y="32" width="819" height="10" fill="#D9D9D9" fill-opacity="0.1"/>
<rect y="48" width="819" height="10" fill="#D9D9D9" fill-opacity="0.1"/>
<rect y="64" width="819" height="10" fill="#D9D9D9" fill-opacity="0.1"/>
<rect y="80" width="819" height="10" fill="#D9D9D9" fill-opacity="0.1"/>
<rect y="96" width="819" height="10" fill="#D9D9D9" fill-opacity="0.1"/>
<rect y="112" width="819" height="10" fill="#D9D9D9" fill-opacity="0.1"/>
<rect y="128" width="819" height="10" fill="#D9D9D9" fill-opacity="0.1"/>
<rect y="144" width="819" height="10" fill="#D9D9D9" fill-opacity="0.1"/>
<rect y="160" width="819" height="10" fill="#D9D9D9" fill-opacity="0.1"/>
<rect y="176" width="819" height="10" fill="#D9D9D9" fill-opacity="0.1"/>
<rect y="193" width="819" height="10" fill="#D9D9D9" fill-opacity="0.1"/>
<rect y="209" width="819" height="10" fill="#D9D9D9" fill-opacity="0.1"/>
<rect y="225" width="819" height="10" fill="#D9D9D9" fill-opacity="0.1"/>
<rect y="241" width="819" height="10" fill="#D9D9D9" fill-opacity="0.1"/>
<rect y="257" width="819" height="10" fill="#D9D9D9" fill-opacity="0.1"/>
<rect y="273" width="819" height="10" fill="#D9D9D9" fill-opacity="0.1"/>
<rect y="289" width="819" height="10" fill="#D9D9D9" fill-opacity="0.1"/>
<rect y="305" width="819" height="10" fill="#D9D9D9" fill-opacity="0.1"/>
<rect y="321" width="819" height="10" fill="#D9D9D9" fill-opacity="0.1"/>
<rect y="337" width="819" height="10" fill="#D9D9D9" fill-opacity="0.1"/>
<rect y="353" width="819" height="10" fill="#D9D9D9" fill-opacity="0.1"/>
<rect y="369" width="819" height="10" fill="#D9D9D9" fill-opacity="0.1"/>
<rect y="386" width="819" height="10" fill="#D9D9D9" fill-opacity="0.1"/>
<rect y="402" width="819" height="10" fill="#D9D9D9" fill-opacity="0.1"/>
<rect y="418" width="819" height="10" fill="#D9D9D9" fill-opacity="0.1"/>
<rect y="434" width="819" height="10" fill="#D9D9D9" fill-opacity="0.1"/>
<rect y="450" width="819" height="10" fill="#D9D9D9" fill-opacity="0.1"/>
<rect y="466" width="819" height="10" fill="#D9D9D9" fill-opacity="0.1"/>
<rect y="482" width="819" height="10" fill="#D9D9D9" fill-opacity="0.1"/>
<rect y="498" width="819" height="10" fill="#D9D9D9" fill-opacity="0.1"/>
<rect y="515" width="819" height="10" fill="#D9D9D9" fill-opacity="0.1"/>
<rect y="531" width="819" height="10" fill="#D9D9D9" fill-opacity="0.1"/>
<rect y="547" width="819" height="10" fill="#D9D9D9" fill-opacity="0.1"/>
<rect y="563" width="819" height="10" fill="#D9D9D9" fill-opacity="0.1"/>
<rect y="579" width="819" height="10" fill="#D9D9D9" fill-opacity="0.1"/>
<rect y="595" width="819" height="10" fill="#D9D9D9" fill-opacity="0.1"/>
<rect y="611" width="819" height="10" fill="#D9D9D9" fill-opacity="0.1"/>
<rect y="627" width="819" height="10" fill="#D9D9D9" fill-opacity="0.1"/>
<rect y="643" width="819" height="10" fill="#D9D9D9" fill-opacity="0.1"/>
<rect y="659" width="819" height="10" fill="#D9D9D9" fill-opacity="0.1"/>
<rect y="675" width="819" height="10" fill="#D9D9D9" fill-opacity="0.1"/>
<rect y="691" width="819" height="10" fill="#D9D9D9" fill-opacity="0.1"/>
<rect y="707" width="681.631" height="10" fill="#D9D9D9" fill-opacity="0.1"/>
<rect y="723" width="681.631" height="10" fill="#D9D9D9" fill-opacity="0.1"/>
<rect y="739" width="681.631" height="10" fill="#D9D9D9" fill-opacity="0.1"/>
<rect y="755" width="681.631" height="10" fill="#D9D9D9" fill-opacity="0.1"/>
<rect y="771" width="681.631" height="10" fill="#D9D9D9" fill-opacity="0.1"/>
<rect y="787" width="681.631" height="10" fill="#D9D9D9" fill-opacity="0.1"/>
<rect y="803" width="631.528" height="10" fill="#D9D9D9" fill-opacity="0.1"/>
<rect y="819" width="631.528" height="10" fill="#D9D9D9" fill-opacity="0.1"/>
<rect y="836" width="631.528" height="10" fill="#D9D9D9" fill-opacity="0.1"/>
<rect y="852" width="631.528" height="10" fill="#D9D9D9" fill-opacity="0.1"/>
<rect y="868" width="631.528" height="10" fill="#D9D9D9" fill-opacity="0.1"/>
<rect y="884" width="631.528" height="10" fill="#D9D9D9" fill-opacity="0.1"/>
<rect y="900" width="631.528" height="10" fill="#D9D9D9" fill-opacity="0.1"/>
<rect y="916" width="631.528" height="10" fill="#D9D9D9" fill-opacity="0.1"/>
<rect y="932" width="631.528" height="10" fill="#D9D9D9" fill-opacity="0.1"/>
<rect y="948" width="631.528" height="10" fill="#D9D9D9" fill-opacity="0.1"/>
<rect y="964" width="631.528" height="10" fill="#D9D9D9" fill-opacity="0.1"/>
<rect y="980" width="631.528" height="10" fill="#D9D9D9" fill-opacity="0.1"/>
<rect y="996" width="631.528" height="10" fill="#D9D9D9" fill-opacity="0.1"/>
<rect y="1012" width="631.528" height="10" fill="#D9D9D9" fill-opacity="0.1"/>
</svg>
