<svg width="32" height="31" viewBox="0 0 32 31" fill="none" xmlns="http://www.w3.org/2000/svg">
<path d="M21.6899 30.3599H9.68994C7.12081 30.3573 4.65772 29.3355 2.84106 27.5189C1.02441 25.7022 0.00264723 23.2391 0 20.6699V10.0999C0.00265038 7.5317 1.02473 5.06958 2.84167 3.25452C4.65862 1.43945 7.12173 0.419921 9.68994 0.419922H21.6899C24.2573 0.422563 26.719 1.44295 28.5354 3.25745C30.3518 5.07194 31.3747 7.53251 31.38 10.0999V20.7099C31.3668 23.2721 30.3403 25.725 28.5248 27.533C26.7093 29.341 24.2522 30.3573 21.6899 30.3599ZM9.68994 2.52991C7.69194 2.52991 5.77568 3.32294 4.36194 4.7348C2.9482 6.14666 2.15255 8.06194 2.1499 10.0599V20.6699C2.15255 22.6679 2.9482 24.5832 4.36194 25.9951C5.77568 27.4069 7.69194 28.1999 9.68994 28.1999H21.6899C23.6879 28.1999 25.6042 27.4069 27.0179 25.9951C28.4317 24.5832 29.2273 22.6679 29.23 20.6699V10.0999C29.2273 8.10192 28.4317 6.18664 27.0179 4.77478C25.6042 3.36292 23.6879 2.56988 21.6899 2.56989L9.68994 2.52991Z" fill="white"/>
<path d="M15.67 23.99C13.9627 23.99 12.2939 23.4836 10.8745 22.5349C9.45504 21.5861 8.34887 20.2377 7.69599 18.6602C7.0431 17.0827 6.8728 15.347 7.20661 13.6727C7.54041 11.9983 8.3633 10.4606 9.57123 9.25409C10.7792 8.04756 12.3178 7.22645 13.9925 6.89459C15.6672 6.56273 17.4028 6.73505 18.9796 7.38977C20.5563 8.04449 21.9033 9.15218 22.8504 10.5727C23.7975 11.9932 24.302 13.6627 24.3 15.37C24.2973 17.6571 23.387 19.8495 21.7689 21.4658C20.1507 23.0821 17.9571 23.99 15.67 23.99ZM15.67 8.89996C14.3903 8.89996 13.1395 9.27942 12.0755 9.99036C11.0115 10.7013 10.1823 11.7118 9.69257 12.894C9.20287 14.0763 9.07464 15.3771 9.32428 16.6322C9.57393 17.8873 10.1902 19.0401 11.095 19.9449C11.9999 20.8498 13.1527 21.466 14.4078 21.7156C15.6628 21.9653 16.9637 21.8372 18.1459 21.3475C19.3282 20.8578 20.3387 20.0285 21.0496 18.9645C21.7606 17.9006 22.14 16.6496 22.14 15.37C22.1373 13.6549 21.4549 12.0107 20.2421 10.7979C19.0293 9.58512 17.3851 8.90261 15.67 8.89996Z" fill="white"/>
<path d="M25.9501 7.0097C25.9501 7.36373 25.8452 7.70985 25.6485 8.00421C25.4518 8.29858 25.1722 8.52797 24.8452 8.66345C24.5181 8.79893 24.1582 8.83439 23.811 8.76532C23.4638 8.69625 23.1448 8.52579 22.8945 8.27545C22.6441 8.02512 22.4736 7.70617 22.4045 7.35895C22.3354 7.01172 22.3709 6.65179 22.5064 6.32471C22.6419 5.99763 22.8714 5.71811 23.1657 5.52142C23.4601 5.32474 23.8061 5.21973 24.1601 5.21973C24.6348 5.21973 25.0902 5.40833 25.4259 5.74402C25.7615 6.07971 25.9501 6.53497 25.9501 7.0097Z" fill="white"/>
</svg>
