<svg width="446" height="328" viewBox="0 0 446 328" fill="none" xmlns="http://www.w3.org/2000/svg">
<path d="M356.702 286.613H356.555C356.555 285.909 356.555 285.064 356.702 284.361C356.702 284.22 356.849 283.938 356.555 283.797H356.702V286.613Z" fill="white"/>
<path d="M199.735 290.836C199.735 290.555 199.735 290.273 199.735 289.991V244.663C199.735 244.24 199.735 244.24 200.176 244.24H200.617C204.145 244.24 207.525 244.24 211.052 244.24C212.522 244.24 213.845 244.381 215.167 244.803C216.343 245.085 217.519 245.507 218.548 246.211C220.752 247.478 222.075 249.73 222.075 252.264C222.075 253.109 222.075 253.954 222.075 254.798C222.075 259.021 222.075 263.245 222.075 267.327C222.075 268.031 221.928 268.876 221.781 269.579C221.34 271.409 220.018 272.817 218.401 273.803L217.225 274.506C217.225 274.647 217.225 274.929 217.372 275.07C219.43 279.293 221.046 283.657 222.075 288.161C222.222 288.865 222.516 289.71 222.663 290.414C222.81 290.836 222.663 290.977 222.222 290.977H215.167C214.58 290.977 214.58 290.977 214.58 290.414C214.139 288.584 213.551 286.754 212.963 284.924C211.934 281.827 210.611 278.87 208.995 276.055C208.848 275.773 208.701 275.492 208.701 275.21C208.701 274.225 208.701 273.099 208.701 272.113C208.701 271.832 208.848 271.55 209.142 271.55C210.023 271.269 210.905 270.846 211.787 270.283C212.522 269.861 213.11 269.439 213.698 269.016C214.139 268.735 214.433 268.172 214.286 267.609C214.286 264.089 214.286 260.57 214.286 257.051C214.286 255.502 214.286 254.094 214.286 252.546C214.286 252.124 214.286 251.983 213.845 251.842C213.11 251.561 212.375 251.42 211.64 251.42C210.317 251.42 208.995 251.42 207.672 251.42C207.378 251.42 207.378 251.561 207.378 251.701C207.378 251.842 207.378 252.264 207.378 252.546V290.695C207.378 290.977 207.231 290.977 207.084 290.977H200.47C200.176 290.836 200.029 290.836 199.735 290.836Z" fill="white"/>
<path d="M171.223 267.468V251.842C171.223 251.279 171.223 250.716 171.37 250.012C171.664 248.323 172.692 246.774 174.162 245.648C175.338 244.803 176.514 244.24 177.983 243.959C181.217 243.114 184.45 243.255 187.537 244.24C188.712 244.522 189.741 245.085 190.623 245.789C192.387 247.056 193.415 249.027 193.415 251.138C193.415 251.42 193.415 251.701 193.415 251.842V283.094C193.415 283.938 193.415 284.642 193.122 285.346C192.681 286.754 191.946 288.021 190.623 289.006C189.3 289.991 187.831 290.695 186.361 290.977C183.127 291.821 179.747 291.681 176.514 290.554C175.632 290.273 174.75 289.851 174.015 289.288C172.104 288.021 170.929 285.909 170.929 283.657C170.929 281.827 170.929 279.997 170.929 278.167L171.223 267.468ZM185.92 267.468V255.643C185.92 254.376 185.92 253.109 185.92 251.842C185.92 251.279 185.92 251.138 185.332 250.997C183.568 250.434 181.658 250.434 179.894 250.997C179.012 251.279 179.012 251.138 179.012 252.124V282.812C179.012 283.094 179.012 283.234 179.012 283.516C179.012 283.938 179.012 284.079 179.453 284.22C181.217 284.783 183.127 284.924 185.038 284.36C186.067 284.079 185.92 284.079 185.92 283.234C185.773 277.744 185.773 272.676 185.92 267.468Z" fill="white"/>
<path d="M288.213 267.468C288.213 272.536 288.213 277.744 288.213 282.812C288.213 283.938 287.919 283.797 289.242 284.079C291.005 284.501 292.769 284.501 294.386 283.938C294.974 283.797 294.974 283.798 294.974 283.094C294.974 279.152 294.974 275.21 294.974 271.269C294.974 270.846 294.827 270.565 294.533 270.283C293.504 269.298 292.328 268.453 291.005 267.749L290.417 267.468C290.124 267.327 290.124 267.186 290.124 266.905V263.667C290.124 263.385 290.27 263.245 290.564 263.245H302.469C302.616 263.245 302.763 263.385 302.763 263.526C302.763 263.808 302.763 263.949 302.763 264.23V282.953C302.763 283.657 302.763 284.22 302.616 284.924C302.175 286.613 301.146 288.161 299.677 289.147C298.501 289.991 297.178 290.555 295.855 290.836C292.769 291.54 289.536 291.54 286.596 290.555C285.567 290.273 284.539 289.71 283.657 289.147C281.746 287.88 280.57 285.909 280.57 283.657C280.57 283.375 280.57 283.094 280.57 282.812V251.983C280.57 251.279 280.57 250.575 280.717 249.871C281.011 248.323 281.893 246.915 283.216 245.93C284.392 244.944 285.861 244.381 287.331 243.959C290.711 243.114 294.239 243.255 297.472 244.381C298.501 244.804 299.53 245.367 300.412 246.07C301.881 247.197 302.763 248.886 302.91 250.857C302.91 250.997 302.91 251.138 302.91 251.279C302.91 253.25 302.91 255.08 302.91 257.051C302.91 257.614 302.91 257.614 302.322 257.614C301.44 257.755 300.706 258.036 299.824 258.036C298.501 258.177 297.031 258.318 295.708 258.458C295.121 258.458 295.121 258.458 295.121 257.895C295.121 255.925 295.121 253.954 295.121 252.124C295.121 250.998 295.268 251.138 294.092 250.857C292.328 250.434 290.417 250.434 288.654 250.997C288.36 250.997 288.213 251.279 288.213 251.561C288.213 251.701 288.213 251.983 288.213 252.264V267.468Z" fill="white"/>
<path d="M179.601 211.722V196.237C179.601 195.533 179.601 194.829 179.748 194.125C180.042 192.436 181.07 190.888 182.54 189.902C183.716 189.058 185.186 188.494 186.655 188.072C189.742 187.368 193.122 187.509 196.208 188.494C196.943 188.776 197.825 189.198 198.413 189.621C200.471 190.888 201.793 192.999 201.793 195.392C201.793 197.363 201.793 199.334 201.793 201.164C201.793 201.586 201.793 201.586 201.352 201.727C200.765 201.868 200.177 202.009 199.589 202.149C197.972 202.431 196.355 202.572 194.886 202.712H194.592C194.298 202.712 194.151 202.572 194.151 202.29V198.067C194.151 197.363 194.151 196.518 194.151 195.815C194.151 195.533 194.004 195.252 193.71 195.252C191.799 194.688 189.595 194.688 187.684 195.252C187.39 195.252 187.243 195.533 187.243 195.815C187.243 195.955 187.243 196.237 187.243 196.378C187.243 206.513 187.243 216.79 187.243 227.066C187.243 228.192 186.949 228.192 188.419 228.474C190.183 228.896 191.946 228.896 193.71 228.333C194.004 228.333 194.151 228.052 194.151 227.77C194.151 227.629 194.151 227.488 194.151 227.348C194.151 223.547 194.151 219.746 194.151 215.945C194.151 215.382 194.004 214.819 193.563 214.397C192.534 213.27 191.211 212.567 189.742 212.003C189.448 211.863 189.154 211.581 189.301 211.3C189.301 210.314 189.301 209.188 189.301 208.203C189.301 207.921 189.448 207.78 189.742 207.78H201.499C201.793 207.78 201.94 207.921 201.94 208.203C201.94 208.484 201.94 208.625 201.94 208.906C201.94 215.1 201.94 221.294 201.94 227.488C201.94 228.192 201.94 228.896 201.793 229.6C201.499 231.149 200.471 232.556 199.148 233.542C197.678 234.527 196.061 235.231 194.445 235.512C191.652 236.076 188.86 235.935 186.067 235.231C184.892 234.949 183.716 234.386 182.687 233.682C180.923 232.415 179.748 230.445 179.748 228.333C179.748 227.911 179.748 227.488 179.748 227.066L179.601 211.722Z" fill="white"/>
<path d="M251.91 264.371V245.226C251.91 244.944 251.91 244.663 251.91 244.381C251.91 244.24 252.057 244.1 252.204 244.1C252.204 244.1 252.204 244.1 252.351 244.1H259.259C259.553 244.1 259.7 244.24 259.7 244.522C259.7 244.803 259.7 245.085 259.7 245.367V283.094C259.7 283.797 259.553 283.797 260.435 284.079C262.345 284.642 264.256 284.642 266.166 284.079C266.607 283.938 266.607 283.938 266.607 283.375C266.607 282.812 266.607 282.812 266.607 282.671V245.367C266.607 243.959 266.46 244.1 267.783 244.1H273.809C273.956 244.1 274.103 244.24 274.25 244.381C274.25 244.522 274.25 244.522 274.25 244.663C274.25 244.803 274.25 244.944 274.25 245.085C274.25 257.755 274.25 270.424 274.25 283.094C274.25 283.797 274.25 284.501 273.956 285.205C273.515 286.894 272.486 288.302 271.017 289.288C269.841 289.991 268.665 290.555 267.342 290.836C264.256 291.54 261.022 291.54 257.936 290.555C256.466 290.132 254.997 289.288 253.968 288.302C252.792 287.176 252.057 285.628 251.91 283.938C251.91 283.516 251.91 283.234 251.91 282.812V264.371Z" fill="white"/>
<path d="M307.025 290.836C307.025 290.132 307.172 289.569 307.319 288.865C307.76 285.627 308.348 282.39 308.789 279.011C309.377 275.492 309.965 271.973 310.406 268.312C310.994 264.371 311.582 260.429 312.169 256.488C312.757 252.968 313.345 249.449 313.786 245.789C313.786 245.367 313.933 244.803 313.933 244.381C313.933 244.1 314.08 243.959 314.374 243.959C314.962 243.959 315.403 243.818 315.991 243.818C318.93 243.677 322.017 243.677 324.956 243.959C325.544 243.959 325.544 243.959 325.544 244.522L326.279 249.449C326.573 251.42 326.867 253.531 327.161 255.502C327.455 257.473 327.748 259.444 328.042 261.274L329.071 268.453C329.365 270.424 329.659 272.395 329.953 274.366C330.247 276.337 330.541 278.307 330.835 280.137C331.129 281.967 331.423 284.079 331.717 285.909C331.864 287.176 332.011 288.302 332.305 289.569C332.452 289.851 332.452 290.273 332.305 290.555C331.57 290.695 325.838 290.695 324.809 290.555C324.662 290.273 324.662 290.132 324.662 289.851C324.515 288.302 324.221 286.754 324.074 285.205C324.074 284.783 323.78 284.361 323.339 284.079C321.723 283.094 320.106 282.249 318.195 281.686C317.901 281.686 317.607 281.545 317.313 281.404C317.02 281.123 317.313 280.841 317.313 280.56C317.46 279.715 317.607 278.87 317.754 278.026C317.754 277.603 317.901 277.463 318.342 277.463H321.723H322.604C322.457 276.9 322.457 276.337 322.457 275.914C322.017 272.817 321.576 269.72 321.135 266.623L319.812 257.191C319.812 257.051 319.812 257.051 319.665 256.91L319.518 256.769C319.518 256.769 319.371 256.769 319.371 256.91C319.371 257.051 319.224 257.191 319.224 257.191C318.93 259.585 318.489 261.978 318.195 264.371C317.901 266.764 317.46 269.298 317.02 271.832L315.991 279.293C315.55 282.249 315.109 285.064 314.668 288.021L314.374 290.273C314.374 290.695 314.227 290.695 313.933 290.695H307.172C307.172 290.977 307.025 290.836 307.025 290.836Z" fill="white"/>
<path d="M231.775 234.949C229.277 235.09 226.631 235.09 224.133 234.949C223.986 234.245 223.839 233.401 223.692 232.697C223.545 231.571 223.398 230.585 223.251 229.459C223.251 229.037 222.957 228.615 222.663 228.333C221.193 227.348 219.577 226.503 217.813 226.081L216.784 225.799C216.637 225.799 216.637 225.658 216.637 225.518C216.784 224.391 216.931 223.265 217.225 222.139C217.225 221.858 217.372 221.717 217.813 221.717H221.193C221.487 221.717 221.928 221.717 222.222 221.576C222.222 221.013 222.075 220.309 222.075 219.746C221.781 217.212 221.34 214.678 220.899 212.003C220.458 209.329 220.165 207.076 219.871 204.543C219.724 203.557 219.577 202.431 219.43 201.446C219.43 201.305 219.43 201.164 219.283 201.023L219.136 200.882C219.136 200.882 218.989 200.882 218.989 201.023C218.989 201.164 218.842 201.305 218.842 201.446C218.548 203.839 218.107 206.232 217.813 208.625L216.637 216.086L215.608 223.547L214.433 231.008C214.286 232.134 214.139 233.119 213.992 234.245C213.992 234.386 213.992 234.527 213.992 234.668C213.992 234.809 213.845 234.949 213.698 234.949H206.496C206.349 234.949 206.349 234.949 206.202 234.809C206.202 234.246 206.349 233.542 206.349 232.979C206.79 230.163 207.231 227.348 207.672 224.532L208.995 216.367C209.436 213.693 209.876 210.877 210.317 208.203C210.758 205.528 211.199 202.712 211.64 200.038L213.11 190.747C213.257 190.043 213.404 189.339 213.404 188.635C213.404 188.213 213.551 188.213 213.992 188.072H214.433C217.666 187.791 220.899 187.791 224.133 188.072C224.28 188.072 224.574 188.072 224.721 188.213C224.868 188.213 225.015 188.354 225.015 188.494C225.162 189.198 225.162 189.902 225.309 190.465C225.896 194.125 226.337 197.926 226.925 201.586C227.366 204.824 227.954 208.062 228.395 211.44C228.836 214.819 229.424 218.057 229.865 221.294C230.453 224.532 230.893 227.77 231.334 231.149C231.481 232.134 231.628 232.979 231.775 233.964C231.628 234.386 231.628 234.668 231.775 234.949Z" fill="white"/>
<path d="M143.004 267.468V245.226C143.004 243.959 142.857 244.1 144.18 244.1C147.561 244.1 150.794 244.1 154.174 244.1C156.085 244.1 157.849 244.381 159.612 244.944C160.641 245.226 161.67 245.789 162.552 246.493C164.315 247.76 165.344 249.871 165.344 251.983V269.439C165.344 270.565 165.197 271.55 164.756 272.536C164.168 273.803 163.14 274.929 161.817 275.633C160.347 276.477 158.877 277.04 157.261 277.322C155.644 277.603 154.174 277.603 152.558 277.463C152.264 277.463 152.117 277.463 152.117 277.04V273.803C152.117 273.521 152.264 273.38 152.411 273.38C153.292 273.099 154.174 272.676 155.056 272.113C155.791 271.691 156.526 271.128 157.114 270.565C157.408 270.283 157.555 269.861 157.555 269.439C157.555 268.735 157.555 268.031 157.555 267.327C157.555 262.4 157.555 257.473 157.555 252.687C157.555 251.56 157.702 251.701 156.526 251.42C155.938 251.279 155.203 251.138 154.615 251.138H151.088C150.647 251.138 150.647 251.138 150.647 251.56V289.71C150.647 290.977 150.794 290.836 149.471 290.836H143.151C143.004 290.836 142.857 290.695 142.857 290.554C142.857 290.273 142.857 289.991 142.857 289.71L143.004 267.468Z" fill="white"/>
<path d="M232.804 270.987V252.405C232.804 252.124 232.804 251.842 232.804 251.561C232.804 251.42 232.657 251.279 232.51 251.279H225.455C225.308 251.279 225.161 251.138 225.161 250.997V244.803C225.161 244.663 225.161 244.663 225.161 244.522C225.161 244.381 225.308 244.24 225.455 244.24H247.501C247.942 244.24 248.089 244.24 248.089 244.663V250.294C248.089 250.434 248.089 250.716 248.089 250.997C248.089 251.138 247.942 251.279 247.795 251.279H241.328C241.034 251.279 240.887 251.279 240.593 251.279L240.446 251.42C240.446 251.561 240.446 251.561 240.446 251.701V289.71C240.446 290.977 240.593 290.836 239.27 290.836H233.098C232.951 290.836 232.804 290.695 232.804 290.555C232.804 290.273 232.804 289.991 232.804 289.71V270.987Z" fill="white"/>
<path d="M356.555 283.797C356.849 283.938 356.702 284.22 356.702 284.361C356.555 285.064 356.555 285.909 356.555 286.613C356.555 287.88 356.408 289.006 356.114 290.273V290.555C356.114 290.695 355.967 290.836 355.82 290.836H338.036C337.154 290.836 337.154 290.836 337.154 289.991V273.521C337.154 264.089 337.154 254.798 337.154 245.367C337.154 243.959 337.008 244.1 338.477 244.1H344.503C344.65 244.1 344.797 244.24 344.797 244.381C344.797 244.663 344.797 244.944 344.797 245.226C344.797 257.614 344.797 270.143 344.797 282.531C344.797 282.953 344.65 283.375 344.944 283.657C345.238 283.938 345.679 283.797 346.12 283.797H356.555Z" fill="white"/>
<path d="M143.004 211.722V188.917C143.004 188.635 143.004 188.494 143.445 188.494H149.912C150.646 188.494 150.646 188.494 150.646 189.198V227.77C150.646 228.051 150.646 228.192 151.087 228.192H161.963C162.257 228.192 162.404 228.333 162.404 228.615C162.404 229.459 162.257 230.445 162.257 231.289C162.11 232.134 162.11 233.119 161.963 234.105C161.963 234.386 161.816 234.668 161.816 234.809C161.816 234.949 161.669 235.231 161.522 235.231C161.522 235.231 161.522 235.231 161.375 235.231C161.082 235.231 160.935 235.231 160.641 235.231H143.298C143.004 235.231 143.004 235.09 143.004 234.809V211.722Z" fill="white"/>
<path d="M165.638 211.722V189.48C165.638 188.213 165.491 188.354 166.667 188.354H172.251C172.545 188.354 172.839 188.354 172.986 188.354C173.133 188.354 173.28 188.494 173.28 188.635C173.28 188.917 173.28 189.058 173.28 189.339V234.386C173.28 235.09 173.28 235.09 172.545 235.09H165.932C165.638 235.09 165.638 234.949 165.638 234.668V211.722Z" fill="white"/>
<path d="M193.857 35.4747L193.122 35.1931C193.122 35.1931 192.975 35.0524 193.269 35.0524H194.297V35.1931H194.004C194.004 35.1931 193.857 35.3339 193.857 35.4747Z" fill="white"/>
<path d="M193.856 35.4746C193.856 35.3339 193.856 35.3339 194.003 35.3339H194.297C200.911 36.3193 207.231 37.8678 213.551 39.8386C230.747 45.0472 246.766 53.4935 260.582 64.6146C270.723 72.7794 279.541 82.3519 286.743 92.9098L287.037 93.3322C287.184 93.4729 287.184 93.6137 286.89 93.7545C286.596 93.8952 286.449 94.036 286.155 94.1768L270.723 102.482L269.694 103.045C269.841 103.327 270.135 103.609 270.282 103.89C276.014 111.773 281.158 119.938 285.714 128.385C293.21 142.462 298.942 157.243 302.91 172.587C304.233 177.655 305.261 182.723 306.143 187.931C306.731 191.451 307.319 194.97 307.76 198.63C308.201 202.712 308.642 206.654 308.789 210.736C309.083 215.241 309.083 219.746 309.083 224.251C309.083 227.629 308.936 231.008 308.642 234.386C308.348 237.765 308.054 240.721 307.466 243.959C307.466 244.1 307.466 244.381 307.319 244.381C307.172 242.692 306.878 241.143 306.731 239.454C306.29 236.639 305.849 233.823 305.261 230.867C304.38 226.362 303.351 221.717 302.175 217.212C298.648 203.135 293.945 189.198 288.213 175.684C279.982 156.398 269.547 137.957 257.055 120.924C251.323 113.181 245.297 105.861 238.683 98.8223L238.095 98.1184C238.389 97.8369 238.683 97.6961 238.977 97.5553L255.732 88.6867C256.026 88.5459 256.32 88.4051 256.614 88.1236L256.026 87.2789C251.029 80.9442 245.591 74.7502 239.712 69.1193C227.807 57.4351 214.433 47.2995 199.882 38.7124C198.119 37.727 196.355 36.7416 194.591 35.7562C194.297 35.6154 194.15 35.4746 193.856 35.4746Z" fill="white"/>
<path d="M221.781 108.395C222.075 108.395 222.369 108.676 222.516 108.958C226.631 112.618 230.6 116.419 234.274 120.501C241.769 128.525 248.53 137.253 254.262 146.544C254.85 147.53 255.438 148.374 255.879 149.36C256.026 149.641 256.026 149.923 255.879 150.064C255.144 151.049 254.262 152.034 253.527 153.02C253.233 153.301 253.233 153.301 252.645 153.161L244.709 150.627L230.6 145.981L230.306 145.84C229.865 145.7 229.571 145.418 229.571 145.137C229.13 142.884 228.542 140.632 228.101 138.379L225.162 123.88C223.986 118.812 222.957 113.744 221.781 108.676C221.781 108.536 221.781 108.536 221.781 108.395Z" fill="white"/>
</svg>
