<svg width="27" height="23" viewBox="0 0 27 23" fill="none" xmlns="http://www.w3.org/2000/svg">
<path d="M24.4301 3.74059C24.1052 3.83414 23.768 3.87794 23.4301 3.87057V3.76058C24.2645 3.12029 24.9646 2.32171 25.4901 1.41058C25.5701 1.15058 25.4901 1.06059 25.4901 1.05059L23.77 1.78057L22.3301 2.43056C21.7879 1.87267 21.1375 1.43146 20.4187 1.13396C19.6999 0.836473 18.9279 0.688999 18.15 0.700584C15.15 0.700584 12.7301 2.82057 12.7301 5.44057C12.7268 6.04418 12.8007 6.64573 12.9501 7.23058C12.9501 7.09058 12.9501 7.36058 12.9501 7.23058C10.6406 7.01746 8.39852 6.33701 6.36011 5.23058C2.02011 3.03058 1.75 1.51058 1.75 1.51058C1.07 2.23058 0.750024 4.63058 1.40002 6.51058C1.87108 7.42211 2.55764 8.20478 3.40002 8.79058C2.92771 8.7848 2.45901 8.70724 2.01001 8.56057C1.65022 8.46283 1.31132 8.30017 1.01001 8.08059C0.59001 9.08059 1.44003 10.9606 2.91003 12.2806C3.6359 12.8379 4.45546 13.2612 5.33008 13.5306L2.89001 13.6006C2.75001 15.9806 7.89001 17.3906 7.89001 17.3906C6.44256 18.5564 4.64829 19.2073 2.79004 19.2406C1.84488 19.2426 0.904619 19.1044 0 18.8306C2.5109 21.0094 5.74681 22.1689 9.07007 22.0806C18.2101 21.6006 23.3601 13.7506 23.6101 6.08059C24.1084 5.76983 24.5597 5.3893 24.9501 4.95058C25.5293 4.35198 26.0269 3.6795 26.4301 2.95058C26.4301 2.95058 25.0101 3.58059 24.4301 3.74059Z" fill="white"/>
</svg>
