<svg width="794" height="1028" viewBox="0 0 794 1028" fill="none" xmlns="http://www.w3.org/2000/svg">
<rect y="1028" width="1028" height="9.21617" transform="rotate(-90 0 1028)" fill="#D9D9D9" fill-opacity="0.1"/>
<rect x="14.7461" y="1028" width="1028" height="9.21617" transform="rotate(-90 14.7461 1028)" fill="#D9D9D9" fill-opacity="0.1"/>
<rect x="29.4922" y="1028" width="1028" height="9.21617" transform="rotate(-90 29.4922 1028)" fill="#D9D9D9" fill-opacity="0.1"/>
<rect x="44.2383" y="1028" width="1028" height="9.21617" transform="rotate(-90 44.2383 1028)" fill="#D9D9D9" fill-opacity="0.1"/>
<rect x="58.9834" y="1028" width="1028" height="9.21617" transform="rotate(-90 58.9834 1028)" fill="#D9D9D9" fill-opacity="0.1"/>
<rect x="73.7295" y="1028" width="1028" height="9.21617" transform="rotate(-90 73.7295 1028)" fill="#D9D9D9" fill-opacity="0.1"/>
<rect x="88.4746" y="1028" width="1028" height="9.21617" transform="rotate(-90 88.4746 1028)" fill="#D9D9D9" fill-opacity="0.1"/>
<rect x="103.221" y="1028" width="1028" height="9.21617" transform="rotate(-90 103.221 1028)" fill="#D9D9D9" fill-opacity="0.1"/>
<rect x="117.967" y="1028" width="1028" height="9.21617" transform="rotate(-90 117.967 1028)" fill="#D9D9D9" fill-opacity="0.1"/>
<rect x="132.713" y="1028" width="1028" height="9.21617" transform="rotate(-90 132.713 1028)" fill="#D9D9D9" fill-opacity="0.1"/>
<rect x="147.459" y="1028" width="1028" height="9.21617" transform="rotate(-90 147.459 1028)" fill="#D9D9D9" fill-opacity="0.1"/>
<rect x="162.205" y="1028" width="1028" height="9.21617" transform="rotate(-90 162.205 1028)" fill="#D9D9D9" fill-opacity="0.1"/>
<rect x="177.872" y="1028" width="1028" height="9.21617" transform="rotate(-90 177.872 1028)" fill="#D9D9D9" fill-opacity="0.1"/>
<rect x="192.618" y="1028" width="1028" height="9.21617" transform="rotate(-90 192.618 1028)" fill="#D9D9D9" fill-opacity="0.1"/>
<rect x="207.364" y="1028" width="1028" height="9.21617" transform="rotate(-90 207.364 1028)" fill="#D9D9D9" fill-opacity="0.1"/>
<rect x="222.11" y="1028" width="1028" height="9.21617" transform="rotate(-90 222.11 1028)" fill="#D9D9D9" fill-opacity="0.1"/>
<rect x="236.855" y="1028" width="1028" height="9.21617" transform="rotate(-90 236.855 1028)" fill="#D9D9D9" fill-opacity="0.1"/>
<rect x="251.602" y="1028" width="1028" height="9.21617" transform="rotate(-90 251.602 1028)" fill="#D9D9D9" fill-opacity="0.1"/>
<rect x="266.347" y="1028" width="1028" height="9.21617" transform="rotate(-90 266.347 1028)" fill="#D9D9D9" fill-opacity="0.1"/>
<rect x="281.093" y="1028" width="1028" height="9.21617" transform="rotate(-90 281.093 1028)" fill="#D9D9D9" fill-opacity="0.1"/>
<rect x="295.839" y="1028" width="1028" height="9.21617" transform="rotate(-90 295.839 1028)" fill="#D9D9D9" fill-opacity="0.1"/>
<rect x="310.585" y="1028" width="1028" height="9.21617" transform="rotate(-90 310.585 1028)" fill="#D9D9D9" fill-opacity="0.1"/>
<rect x="325.331" y="1028" width="1028" height="9.21617" transform="rotate(-90 325.331 1028)" fill="#D9D9D9" fill-opacity="0.1"/>
<rect x="340.077" y="1028" width="1028" height="9.21617" transform="rotate(-90 340.077 1028)" fill="#D9D9D9" fill-opacity="0.1"/>
<rect x="355.744" y="1028" width="1028" height="9.21617" transform="rotate(-90 355.744 1028)" fill="#D9D9D9" fill-opacity="0.1"/>
<rect x="370.49" y="1028" width="1028" height="9.21617" transform="rotate(-90 370.49 1028)" fill="#D9D9D9" fill-opacity="0.1"/>
<rect x="385.236" y="1028" width="1028" height="9.21617" transform="rotate(-90 385.236 1028)" fill="#D9D9D9" fill-opacity="0.1"/>
<rect x="399.981" y="1028" width="1028" height="9.21617" transform="rotate(-90 399.981 1028)" fill="#D9D9D9" fill-opacity="0.1"/>
<rect x="414.728" y="1028" width="1028" height="9.21617" transform="rotate(-90 414.728 1028)" fill="#D9D9D9" fill-opacity="0.1"/>
<rect x="429.474" y="1028" width="1028" height="9.21617" transform="rotate(-90 429.474 1028)" fill="#D9D9D9" fill-opacity="0.1"/>
<rect x="444.22" y="1028" width="1028" height="9.21617" transform="rotate(-90 444.22 1028)" fill="#D9D9D9" fill-opacity="0.1"/>
<rect x="458.966" y="1028" width="1028" height="9.21617" transform="rotate(-90 458.966 1028)" fill="#D9D9D9" fill-opacity="0.1"/>
<rect x="474.633" y="1028" width="1028" height="9.21617" transform="rotate(-90 474.633 1028)" fill="#D9D9D9" fill-opacity="0.1"/>
<rect x="489.379" y="1028" width="1028" height="9.21617" transform="rotate(-90 489.379 1028)" fill="#D9D9D9" fill-opacity="0.1"/>
<rect x="504.125" y="1028" width="1028" height="9.21617" transform="rotate(-90 504.125 1028)" fill="#D9D9D9" fill-opacity="0.1"/>
<rect x="518.871" y="1028" width="1028" height="9.21617" transform="rotate(-90 518.871 1028)" fill="#D9D9D9" fill-opacity="0.1"/>
<rect x="533.617" y="1028" width="1028" height="9.21617" transform="rotate(-90 533.617 1028)" fill="#D9D9D9" fill-opacity="0.1"/>
<rect x="548.362" y="1028" width="1028" height="9.21617" transform="rotate(-90 548.362 1028)" fill="#D9D9D9" fill-opacity="0.1"/>
<rect x="563.108" y="1028" width="1028" height="9.21617" transform="rotate(-90 563.108 1028)" fill="#D9D9D9" fill-opacity="0.1"/>
<rect x="577.854" y="1028" width="1028" height="9.21617" transform="rotate(-90 577.854 1028)" fill="#D9D9D9" fill-opacity="0.1"/>
<rect x="592.6" y="1028" width="1028" height="9.21617" transform="rotate(-90 592.6 1028)" fill="#D9D9D9" fill-opacity="0.1"/>
<rect x="607.346" y="1028" width="1028" height="9.21617" transform="rotate(-90 607.346 1028)" fill="#D9D9D9" fill-opacity="0.1"/>
<rect x="622.092" y="1028" width="1028" height="9.21617" transform="rotate(-90 622.092 1028)" fill="#D9D9D9" fill-opacity="0.1"/>
<rect x="636.838" y="1028" width="1028" height="9.21617" transform="rotate(-90 636.838 1028)" fill="#D9D9D9" fill-opacity="0.1"/>
<rect x="651.584" y="1028" width="1028" height="9.21617" transform="rotate(-90 651.584 1028)" fill="#D9D9D9" fill-opacity="0.1"/>
<rect x="666.329" y="1028" width="1028" height="9.21617" transform="rotate(-90 666.329 1028)" fill="#D9D9D9" fill-opacity="0.1"/>
<rect x="681.075" y="1028" width="1028" height="9.21617" transform="rotate(-90 681.075 1028)" fill="#D9D9D9" fill-opacity="0.1"/>
<rect x="695.821" y="1028" width="1028" height="9.21617" transform="rotate(-90 695.821 1028)" fill="#D9D9D9" fill-opacity="0.1"/>
<rect x="710.566" y="1028" width="1028" height="9.21617" transform="rotate(-90 710.566 1028)" fill="#D9D9D9" fill-opacity="0.1"/>
<rect x="725.312" y="1028" width="1028" height="9.21617" transform="rotate(-90 725.312 1028)" fill="#D9D9D9" fill-opacity="0.1"/>
<rect x="740.389" y="832" width="830" height="9.24331" transform="rotate(-90 740.389 832)" fill="#D9D9D9" fill-opacity="0.1"/>
<rect x="755.178" y="832" width="830" height="9.24331" transform="rotate(-90 755.178 832)" fill="#D9D9D9" fill-opacity="0.1"/>
<rect x="770.892" y="832" width="830" height="9.24331" transform="rotate(-90 770.892 832)" fill="#D9D9D9" fill-opacity="0.1"/>
<rect x="784.757" y="832" width="830" height="9.24331" transform="rotate(-90 784.757 832)" fill="#D9D9D9" fill-opacity="0.1"/>
</svg>
