<svg width="32" height="24" viewBox="0 0 32 24" fill="none" xmlns="http://www.w3.org/2000/svg">
<path d="M25.22 8.17065e-06H6.22004C5.40116 -0.00132004 4.59012 0.159298 3.83357 0.472664C3.07702 0.78603 2.38995 1.24597 1.81184 1.82594C1.23373 2.4059 0.775974 3.09445 0.465038 3.852C0.154103 4.60955 -0.00388449 5.42113 7.25324e-05 6.24V17.32C7.25324e-05 18.967 0.654319 20.5465 1.81892 21.7111C2.98352 22.8757 4.56304 23.53 6.21003 23.53H25.21C26.857 23.53 28.4365 22.8757 29.6011 21.7111C30.7657 20.5465 31.4201 18.967 31.4201 17.32V6.24C31.4241 5.42281 31.2667 4.61288 30.957 3.85664C30.6473 3.10039 30.1914 2.41272 29.6154 1.83302C29.0394 1.25331 28.3547 0.793007 27.6004 0.478463C26.8462 0.163918 26.0372 0.00131457 25.22 8.17065e-06ZM13.0001 16.32V7.18L20.9101 11.75L13.0001 16.32Z" fill="white"/>
</svg>
